<svg width="200" height="200" viewBox="0 0 200 200" fill="none" xmlns="http://www.w3.org/2000/svg">
<g clip-path="url(#clip0_14_2)">
<rect width="200" height="200" rx="30" fill="white"/>
<path d="M135.454 37.3288C137.587 35.1973 140.479 34 143.495 34C146.51 34 149.402 35.1973 151.535 37.3288L168.344 54.1378C170.476 56.2708 171.673 59.1629 171.673 62.1783C171.673 65.1938 170.476 68.0858 168.344 70.2188L150.19 88.3733L150.112 88.4578L79.7296 155.635C78.4434 156.864 76.8873 157.774 75.1861 158.294L39.2866 169.214C38.4425 169.47 37.5448 169.491 36.6895 169.276C35.8341 169.061 35.0535 168.617 34.4311 167.992C33.8062 167.369 33.3623 166.589 33.147 165.733C32.9318 164.878 32.9532 163.98 33.2091 163.136L44.0836 127.386C44.6539 125.515 45.6972 123.823 47.1126 122.472L117.339 55.4378L135.454 37.3288ZM53.8466 129.525C53.6456 129.719 53.496 129.96 53.4111 130.227L45.1951 157.228L72.3456 148.966C72.5891 148.891 72.8116 148.759 72.9956 148.583L139.77 84.8438L120.66 65.7403L53.8466 129.525ZM146.745 78.0383L161.454 63.3353C161.605 63.1844 161.725 63.0051 161.807 62.8076C161.889 62.6102 161.931 62.3986 161.931 62.1848C161.931 61.9711 161.889 61.7594 161.807 61.562C161.725 61.3646 161.605 61.1853 161.454 61.0343L144.645 44.2253C144.494 44.074 144.315 43.9539 144.117 43.872C143.92 43.7901 143.708 43.7479 143.495 43.7479C143.281 43.7479 143.069 43.7901 142.872 43.872C142.674 43.9539 142.495 44.074 142.344 44.2253L127.641 58.9283L146.745 78.0383Z" fill="black"/>
</g>
<defs>
<clipPath id="clip0_14_2">
<rect width="200" height="200" fill="white"/>
</clipPath>
</defs>
</svg>
